<svg height="512pt" viewBox="0 0 512.00036 512" width="512pt" xmlns="http://www.w3.org/2000/svg"><path d="m482 361.992188c0 16.5-13.5 30-30 30l-90.996094 30-89.996094-30c-16.5 0-30-13.5-30-30s13.5-30 30-30l89.996094-30 90.996094 30c16.5 0 30 13.5 30 30zm0 0" fill="#ff4b00"/><path d="m482 361.992188c0 16.5-13.5 30-30 30l-90.996094 30v-120l90.996094 30c16.5 0 30 13.5 30 30zm0 0" fill="#d03b00"/><path d="m512 421.992188c0 16.496093-6.597656 31.496093-17.699219 42.296874-10.800781 11.097657-25.800781 17.699219-42.300781 17.699219h-180.992188c-33 0-60-27-60-59.996093 0-16.5 13.5-30 30-30h240.992188c16.5 0 30 13.5 30 30zm0 0" fill="#ff9f00"/><path d="m512 301.992188c0 16.5-13.5 30-30 30h-240.992188c-16.5 0-30-13.5-30-30 0-33 27-59.996094 60-59.996094h180.992188c16.5 0 31.5 6.597656 42.300781 17.695312 11.101563 10.804688 17.699219 25.804688 17.699219 42.300782zm0 0" fill="#ff9f00"/><path d="m512 421.992188c0 16.496093-6.597656 31.496093-17.699219 42.296874-10.800781 11.097657-25.800781 17.699219-42.300781 17.699219h-90.996094v-89.996093h120.996094c16.5 0 30 13.5 30 30zm0 0" fill="#ff7816"/><path d="m482 331.992188h-120.996094v-89.996094h90.996094c16.5 0 31.5 6.597656 42.300781 17.695312 11.101563 10.800782 17.699219 25.800782 17.699219 42.300782s-13.5 30-30 30zm0 0" fill="#ff7816"/><path d="m226.007812 120.996094c-8.292968 0-15-6.707032-15-15v-60.996094c0-24.8125 20.183594-45 45-45h89.996094c8.292969 0 15 6.710938 15 15s-6.707031 15-15 15h-89.996094c-8.277343 0-15 6.722656-15 15v60.996094c0 8.292968-6.710937 15-15 15zm0 0" fill="#4a696f"/><path d="m312.40625 361.992188-9 109.195312c-2.101562 23.101562-21.300781 40.800781-44.699219 40.800781h-156.398437c-23.398438 0-42.597656-17.699219-44.699219-40.800781l-9-109.195312 59.398437-30h145zm0 0" fill="#a8d32a"/><path d="m253.007812 331.992188 59.398438 30-9 109.195312c-2.101562 23.101562-21.300781 40.800781-44.699219 40.800781h-77.699219v-179.996093zm0 0" fill="#93bf00"/><path d="m331.003906 137.496094-11.097656 134.496094-66.898438 30h-144.996093l-66.898438-30-11.101562-134.496094c-.601563-8.398438 5.402343-15.601563 13.5-16.5h273.992187c8.101563.898437 14.101563 8.101562 13.5 16.5zm0 0" fill="#a8d32a"/><path d="m331.003906 137.496094-11.097656 134.496094-66.898438 30h-72v-180.996094h136.496094c8.101563.898437 14.101563 8.101562 13.5 16.5zm0 0" fill="#93bf00"/><path d="m319.90625 271.992188-7.5 90h-59.398438c-16.800781 18.898437-43.199218 30-72 30-28.800781 0-56.199218-11.101563-72.996093-30h-59.402344l-7.496094-90h66.894531c16.800782-18.898438 44.199219-29.996094 73-29.996094 28.800782 0 55.199219 11.097656 72 29.996094zm0 0" fill="#4a696f"/><path d="m319.90625 271.992188-7.5 90h-59.398438c-16.800781 18.898437-43.199218 30-72 30v-149.996094c28.800782 0 55.199219 11.097656 72 29.996094zm0 0" fill="#3e5959"/><path d="m346.003906 150.996094h-330.992187c-11.097657 0-18.300781-11.699219-13.5-21.601563l15-29.996093c2.703125-5.101563 7.800781-8.402344 13.5-8.402344h300.992187c5.699219 0 10.800782 3.300781 13.5 8.402344l15 29.996093c4.800782 9.902344-2.398437 21.601563-13.5 21.601563zm0 0" fill="#ffd400"/><path d="m346.003906 150.996094h-164.996094v-60h149.996094c5.699219 0 10.800782 3.300781 13.5 8.402344l15 29.996093c4.800782 9.902344-2.398437 21.601563-13.5 21.601563zm0 0" fill="#ff9f00"/></svg>